# xmcd
# Copyright (C) 1995-1998 Ti Kan
#
# Track frame offsets:
#       150
#       15622
#       29067
#       51097
#       68900
#       88822
#       104332
#       124245
#       144092
#       160070
#       176615
#       185542
#       206110
#       223677
#
# Disc length: 3337 seconds
#
# Revision: 0
# Processed by: cddbd v1.5.2PL0 Copyright (c) Steve Scherf et al.
# Submitted via: CD-Import v1.0
#
DISCID=cc0d070e
DTITLE=Raconteurs - Consolers Of The Lonely
DYEAR=2008
DGENRE=
TTITLE0=Consoler Of The Lonely
TTITLE1=Salute Your Solution
TTITLE2=You Don't Understand Me
TTITLE3=Old Enough
TTITLE4=The Switch And The Spur
TTITLE5=Hold Up
TTITLE6=Top Yourself
TTITLE7=	many Shades Of Black
TTITLE8=Five On The Five
TTITLE9=Attention
TTITLE10=Pull This Blanket Off
TTITLE11=Rich Kid Blues
TTITLE12=These Stones Will Shout
TTITLE13=Carolina Drama
EXTD=
EXTT0=
EXTT1=
EXTT2=
EXTT3=
EXTT4=
EXTT5=
EXTT6=
EXTT7=
EXTT8=
EXTT9=
EXTT10=
EXTT11=
EXTT12=
EXTT13=
PLAYORDER=
